<svg width="20" height="20" viewBox="0 0 20 20" fill="none" xmlns="http://www.w3.org/2000/svg">
<g clip-path="url(#clip0_815346_3873)">
<path d="M10 20C4.48583 20 0 15.5142 0 10C0 4.48583 4.48583 0 10 0C15.5142 0 20 4.48583 20 10C20 12.385 18.02 14.1667 16.25 14.1667C14.3833 14.1667 12.5 13.1358 12.5 10.8333L13.34 6.17583C13.3808 5.94917 13.5975 5.79917 13.8242 5.84083C14.0508 5.88167 14.2008 6.09917 14.1592 6.325L13.3258 10.9083C13.3333 12.6783 14.9042 13.3333 16.25 13.3333C17.5992 13.3333 19.1667 11.8775 19.1667 10C19.1667 4.94583 15.0542 0.833333 10 0.833333C4.94583 0.833333 0.833333 4.94583 0.833333 10C0.833333 15.0542 4.94583 19.1667 10 19.1667C12.0942 19.1667 14.065 18.4792 15.7 17.1792C15.88 17.035 16.1417 17.065 16.285 17.2458C16.4283 17.4258 16.3983 17.6875 16.2183 17.8308C14.435 19.25 12.2842 20 10 20Z" fill="#3D70FF"/>
<path d="M9.58302 14.1664C8.49552 14.1664 7.49052 13.6464 6.82636 12.7397C6.12886 11.7881 5.92052 10.5614 6.26969 9.45806C6.83052 7.68056 8.12302 6.41806 9.81552 5.99222C11.2597 5.62722 12.7564 5.93972 13.6247 6.78556C13.7897 6.94556 13.793 7.20973 13.6322 7.37473C13.4722 7.54056 13.2089 7.54223 13.043 7.38223C12.3889 6.74473 11.1755 6.51139 10.0197 6.80056C9.19386 7.00889 7.71136 7.66223 7.06469 9.70889C6.79636 10.5597 6.95886 11.5089 7.49969 12.2472C8.00386 12.9372 8.76469 13.3331 9.58302 13.3331C11.2855 13.3331 12.2672 11.7814 12.5105 10.7381C12.563 10.5139 12.788 10.3739 13.0114 10.4272C13.2355 10.4797 13.3747 10.7039 13.3222 10.9281C12.9455 12.5372 11.5405 14.1664 9.58302 14.1664Z" fill="#3D70FF"/>
</g>
<defs>
<clipPath id="clip0_815346_3873">
<rect width="20" height="20" fill="white"/>
</clipPath>
</defs>
</svg>
