<svg width="17" height="20" viewBox="0 0 17 20" fill="none" xmlns="http://www.w3.org/2000/svg">
<g clip-path="url(#clip0_815346_3870)">
<path d="M12.3711 3.30859C12.5666 3.30859 12.7252 3.12193 12.7252 2.89193C12.7252 2.66193 12.5666 2.47526 12.3711 2.47526C12.1756 2.47526 12.0169 2.66193 12.0169 2.89193C12.0169 3.12193 12.1756 3.30859 12.3711 3.30859ZM13.1283 13.7828C12.2981 13.7828 11.4849 13.6303 10.7143 13.3311C10.3389 13.1786 9.91174 13.2961 9.66382 13.5928L8.13595 14.9503C6.38282 13.8494 5.26082 12.5303 4.33786 10.4828L5.45986 8.72859C5.7432 8.39443 5.8452 7.90776 5.72265 7.45276C5.46695 6.54193 5.33732 5.58526 5.33732 4.60859C5.33732 3.91943 4.86061 3.35859 4.27482 3.35859H1.79565C1.20986 3.35859 0.733154 3.91943 0.733154 4.60859C0.733154 12.6494 6.29428 19.1919 13.129 19.1919C13.7148 19.1919 14.1915 18.6311 14.1908 17.9411V15.0328C14.1908 14.3436 13.7141 13.7828 13.1283 13.7828ZM13.4832 17.9419C13.4832 18.1719 13.3238 18.3586 13.129 18.3586C6.68457 18.3586 1.44149 12.1903 1.44149 4.60859C1.44149 4.37859 1.60086 4.19193 1.79565 4.19193H4.27482C4.46961 4.19193 4.62899 4.37859 4.62899 4.60859C4.62899 5.67443 4.77136 6.71943 5.04832 7.71026C5.0894 7.86443 5.05611 8.02526 4.92578 8.18359L3.63732 10.1919C3.55586 10.3194 3.54311 10.4903 3.60474 10.6319C4.65449 13.0594 5.92949 14.5611 8.00915 15.8136C8.12815 15.8869 8.27478 15.8719 8.38386 15.7753L10.1278 14.2203C10.222 14.1103 10.3615 14.0711 10.4883 14.1211C11.3355 14.4503 12.2237 14.6169 13.129 14.6169C13.3238 14.6169 13.4832 14.8036 13.4832 15.0336V17.9419ZM13.0794 7.47526H12.7252V4.55859C12.7252 4.41443 12.6615 4.28026 12.5574 4.20359C12.4532 4.12776 12.3229 4.12026 12.2131 4.18526L11.5048 4.60193C11.3298 4.70526 11.259 4.95526 11.3461 5.16109C11.4339 5.36693 11.6457 5.44943 11.8214 5.34776L12.0169 5.23276V7.47526H11.6627C11.4672 7.47526 11.3086 7.66193 11.3086 7.89193C11.3086 8.12193 11.4672 8.30859 11.6627 8.30859H13.0794C13.2749 8.30859 13.4336 8.12193 13.4336 7.89193C13.4336 7.66193 13.2749 7.47526 13.0794 7.47526ZM12.3711 0.808594C10.2234 0.808594 8.47524 2.86443 8.47524 5.39193C8.47524 7.91943 10.2234 9.97526 12.3711 9.97526C14.5187 9.97526 16.2669 7.91943 16.2669 5.39193C16.2669 2.86443 14.5187 0.808594 12.3711 0.808594ZM12.3711 9.14193C10.6137 9.14193 9.18357 7.45943 9.18357 5.39193C9.18357 3.32443 10.6137 1.64193 12.3711 1.64193C14.1284 1.64193 15.5586 3.32443 15.5586 5.39193C15.5586 7.45943 14.1284 9.14193 12.3711 9.14193Z" fill="#3D70FF"/>
</g>
<defs>
<clipPath id="clip0_815346_3870">
<rect width="17" height="20" fill="white"/>
</clipPath>
</defs>
</svg>
