<svg width="22" height="22" viewBox="0 0 24 25" fill="none" xmlns="http://www.w3.org/2000/svg">
<g clip-path="url(#clip0_814307_160)">
<path d="M23.962 15.691C24.013 15.569 24.013 15.431 23.962 15.309C23.937 15.247 23.9 15.192 23.853 15.146L17.854 9.147C17.659 8.952 17.342 8.952 17.147 9.147C16.952 9.342 16.952 9.659 17.147 9.854L22.293 15H12.5C6.159 15 1 9.841 1 3.5C1 3.224 0.776 3 0.5 3C0.224 3 0 3.224 0 3.5C0 10.393 5.607 16 12.5 16H22.293L17.147 21.146C16.952 21.341 16.952 21.658 17.147 21.853C17.245 21.951 17.373 21.999 17.501 21.999C17.629 21.999 17.757 21.95 17.855 21.853L23.854 15.854C23.9 15.808 23.936 15.752 23.962 15.691Z" fill="#3D70FF"/>
</g>
<defs>
<clipPath id="clip0_814307_160">
<rect width="24" height="24" fill="white" transform="translate(0 0.5)"/>
</clipPath>
</defs>
</svg>
