<svg width="20" height="16" viewBox="0 0 20 16" fill="none" xmlns="http://www.w3.org/2000/svg">
<g clip-path="url(#clip0_815346_3866)">
<path d="M17.0833 13.8984C16.975 13.8984 16.8683 13.8659 16.7883 13.8053L12.7442 10.7083L5.41667 10.7083C3.80833 10.7083 2.5 9.70664 2.5 8.47526L2.5 2.73307C2.5 1.50169 3.80833 0.5 5.41667 0.5L17.0833 0.5C18.6917 0.5 20 1.50169 20 2.73307L20 8.47526C20 9.59818 18.9117 10.5303 17.5 10.686L17.5 13.5794C17.5 13.7083 17.3983 13.8251 17.2425 13.8742C17.1908 13.8901 17.1367 13.8984 17.0833 13.8984ZM5.41667 1.13802C4.26833 1.13802 3.33333 1.85324 3.33333 2.73307L3.33333 8.47526C3.33333 9.35509 4.26833 10.0703 5.41667 10.0703L12.9167 10.0703C13.0275 10.0703 13.1333 10.1041 13.2117 10.1635L16.6667 12.8093L16.6667 10.3893C16.6667 10.2132 16.8533 10.0703 17.0833 10.0703C18.2317 10.0703 19.1667 9.35509 19.1667 8.47526L19.1667 2.73307C19.1667 1.85324 18.2317 1.13802 17.0833 1.13802L5.41667 1.13802Z" fill="#3D70FF"/>
<path d="M2.91667 15.8127C2.86333 15.8127 2.80917 15.8044 2.7575 15.7885C2.60167 15.7394 2.5 15.6226 2.5 15.4937L2.5 12.6003C1.08833 12.4446 -2.03422e-07 11.5125 -1.76892e-07 10.3896L-4.12278e-08 4.64737C-2.62444e-08 4.01318 0.354167 3.40642 0.971667 2.98341C1.14417 2.86601 1.40583 2.8775 1.56 3.00893C1.71333 3.13972 1.69917 3.34134 1.5275 3.45937C1.08583 3.76052 0.833333 4.19437 0.833333 4.64737L0.833333 10.3896C0.833333 11.2694 1.76833 11.9846 2.91667 11.9846C3.14667 11.9846 3.33333 12.1275 3.33333 12.3036L3.33333 14.7236L6.78833 12.0784C6.86667 12.0184 6.9725 11.9846 7.08333 11.9846H13.06C13.29 11.9846 13.4767 12.1275 13.4767 12.3036C13.4767 12.4797 13.29 12.6226 13.06 12.6226H7.25583L3.21083 15.7196C3.13167 15.7802 3.025 15.8127 2.91667 15.8127Z" fill="#3D70FF"/>
</g>
<defs>
<clipPath id="clip0_815346_3866">
<rect width="20" height="15.3125" fill="white" transform="translate(0 0.5)"/>
</clipPath>
</defs>
</svg>
