<svg width="20" height="20" viewBox="0 0 20 20" fill="none" xmlns="http://www.w3.org/2000/svg">
<g clip-path="url(#clip0_815346_3876)">
<path d="M0.416667 20.002C0.305833 20.002 0.198333 19.9578 0.119167 19.8761C0.00500001 19.7595 -0.0308333 19.5878 0.0283333 19.4353L1.58083 15.3978C0.545 13.7886 0 11.9278 0 10.002C0 4.48779 4.48583 0.00195312 10 0.00195312C15.5142 0.00195312 20 4.48779 20 10.002C20 15.5161 15.5142 20.002 10 20.002C8.13 20.002 6.30917 19.4803 4.7225 18.4903L0.556667 19.9778C0.510833 19.9945 0.464167 20.002 0.416667 20.002ZM4.775 17.6128C4.855 17.6128 4.93417 17.6353 5.0025 17.6803C6.49417 18.6545 8.2225 19.1695 10 19.1695C15.0542 19.1695 19.1667 15.057 19.1667 10.0028C19.1667 4.94862 15.0542 0.83612 10 0.83612C4.94583 0.83612 0.833333 4.94862 0.833333 10.0028C0.833333 11.8345 1.37167 13.6028 2.39167 15.1161C2.4675 15.2286 2.48333 15.372 2.435 15.4986L1.13167 18.8878L4.635 17.637C4.68 17.6211 4.7275 17.6128 4.775 17.6128Z" fill="#3D70FF"/>
<path d="M12.5 15.002C11.1908 15.002 8.6775 13.4361 7.62167 12.3803C6.56583 11.3236 5 8.81029 5 7.50195C5 6.15529 6.14583 5.00195 7.08333 5.00195H7.91667C8.075 5.00195 8.22 5.09195 8.29 5.23445C8.29 5.23445 8.7925 6.25529 9.12083 6.89529C9.49083 7.61779 8.795 8.46779 8.39917 8.86862C8.54083 9.23195 8.87167 9.95195 9.46083 10.5411C10.05 11.1303 10.77 11.462 11.1333 11.6028C11.5333 11.2061 12.3833 10.5095 13.1067 10.8811C13.7467 11.2103 14.7667 11.7111 14.7667 11.7111C14.91 11.782 15 11.927 15 12.0853V12.9186C15 13.857 13.8458 15.002 12.5 15.002ZM7.08333 5.83529C6.6125 5.83529 5.83333 6.61445 5.83333 7.50195C5.83333 8.46779 7.195 10.7736 8.21167 11.7903C9.3225 12.9011 11.6067 14.1686 12.5 14.1686C13.3875 14.1686 14.1667 13.3895 14.1667 12.9186V12.3445C13.825 12.1761 13.18 11.8561 12.7258 11.6228C12.5308 11.5178 11.9383 11.9353 11.5625 12.3611C11.455 12.4828 11.2875 12.5295 11.1342 12.4853C11.0817 12.4703 9.8475 12.1053 8.87167 11.1295C7.89583 10.1536 7.53167 8.91945 7.51583 8.86695C7.47083 8.71195 7.52 8.54529 7.64 8.43862C8.065 8.06279 8.48 7.47279 8.37833 7.27445C8.14583 6.82195 7.82667 6.17695 7.65833 5.83529H7.08333Z" fill="#3D70FF"/>
</g>
<defs>
<clipPath id="clip0_815346_3876">
<rect width="20" height="20" fill="white"/>
</clipPath>
</defs>
</svg>
